<svg id="visual" viewBox="0 0 900 100" width="900" height="100" xmlns="http://www.w3.org/2000/svg" xmlns:xlink="http://www.w3.org/1999/xlink" version="1.1"><path d="M0 66L50 60.7C100 55.3 200 44.7 300 45.3C400 46 500 58 600 55.7C700 53.3 800 36.7 850 28.3L900 20L900 0L850 0C800 0 700 0 600 0C500 0 400 0 300 0C200 0 100 0 50 0L0 0Z" fill="#c37a32"></path><path d="M0 87L50 82.2C100 77.3 200 67.7 300 69.7C400 71.7 500 85.3 600 87.2C700 89 800 79 850 74L900 69L900 18L850 26.3C800 34.7 700 51.3 600 53.7C500 56 400 44 300 43.3C200 42.7 100 53.3 50 58.7L0 64Z" fill="#ffa64c"></path><path d="M0 101L50 101C100 101 200 101 300 101C400 101 500 101 600 101C700 101 800 101 850 101L900 101L900 67L850 72C800 77 700 87 600 85.2C500 83.3 400 69.7 300 67.7C200 65.7 100 75.3 50 80.2L0 85Z" fill="#ffc382"></path></svg>