<?xml version="1.0" encoding="UTF-8"?>
<svg version="1.1" xmlns="http://www.w3.org/2000/svg" width="1847" height="221">
<path d="M0 0 C0.80195297 -0.01328842 1.60390594 -0.02657684 2.43016052 -0.04026794 C5.08456259 -0.0789996 7.73841708 -0.09456286 10.39306641 -0.10668945 C12.23768236 -0.1214063 14.08229702 -0.13628584 15.9269104 -0.15132141 C19.79554751 -0.17832621 23.66399218 -0.19186448 27.53271484 -0.19824219 C32.48896764 -0.20911451 37.44318569 -0.27082241 42.39883995 -0.34495831 C46.20961383 -0.39333958 50.0198969 -0.4057692 53.83095169 -0.40830421 C55.65787353 -0.41553668 57.4847929 -0.43601593 59.31141281 -0.47000694 C73.56461751 -0.71497347 73.56461751 -0.71497347 77.28691101 2.1156311 C78.64819006 4.21787367 79.41411399 6.07249642 80.11962891 8.4675293 C80.57732666 9.40822266 81.03502441 10.34891602 81.5065918 11.31811523 C81.86487061 12.18726563 82.22314941 13.05641602 82.59228516 13.9519043 C83.01050537 14.95463379 83.42872559 15.95736328 83.85961914 16.99047852 C84.51426147 18.58786865 84.51426147 18.58786865 85.18212891 20.2175293 C86.15275685 22.54856099 87.1241366 24.87927975 88.09619141 27.2097168 C88.5940918 28.40822266 89.09199219 29.60672852 89.60498047 30.84155273 C92.04900495 36.69239922 94.55291401 42.51724943 97.05712891 48.3425293 C98.06630529 50.69406528 99.07541957 53.04562791 100.08447266 55.3972168 C100.58575684 56.56478516 101.08704102 57.73235352 101.60351562 58.93530273 C104.60918075 65.93787326 107.60937871 72.94278785 110.6105957 79.94726562 C113.1586686 85.89360216 115.70815849 91.8393242 118.26025391 97.78393555 C118.77668457 98.98751709 119.29311523 100.19109863 119.82519531 101.43115234 C120.84237799 103.8014163 121.86026388 106.17137862 122.87890625 108.54101562 C125.14422046 113.81908465 127.39220683 119.10235086 129.58056641 124.4128418 C129.95020508 125.30672607 130.31984375 126.20061035 130.70068359 127.12158203 C131.3765891 128.76187002 132.04688662 130.40448478 132.71044922 132.04980469 C134.07565993 135.96149827 134.07565993 135.96149827 137.11962891 138.4675293 C137.57680298 137.33553101 137.57680298 137.33553101 138.04321289 136.18066406 C144.80500914 119.4528015 151.63696087 102.75553459 158.55712891 86.0925293 C158.91581055 85.22870636 159.27449219 84.36488342 159.64404297 83.47488403 C161.08823734 79.99679609 162.53247632 76.51872668 163.97680664 73.04069519 C167.21979319 65.22979922 170.45498903 57.41571392 173.67904663 49.59698486 C174.26079508 48.1861746 174.84284289 46.77548774 175.42520142 45.3649292 C178.35467735 38.26661983 181.25482659 31.15937222 184.06884766 24.0144043 C184.52396729 22.86069336 184.97908691 21.70698242 185.44799805 20.51831055 C186.28070098 18.39853203 187.10724937 16.27631974 187.92602539 14.15112305 C188.29155518 13.21913086 188.65708496 12.28713867 189.03369141 11.3269043 C189.34258301 10.52736328 189.65147461 9.72782227 189.96972656 8.90405273 C191.48099708 5.70182772 192.81847098 3.19713727 195.11962891 0.4675293 C198.10606781 -0.12617588 200.28588299 -0.30702223 203.26879883 -0.22949219 C204.49621544 -0.23321587 204.49621544 -0.23321587 205.74842834 -0.23701477 C208.44992931 -0.23793226 211.14896055 -0.19614695 213.85009766 -0.15356445 C215.72527606 -0.14491032 217.60046759 -0.13876436 219.47566223 -0.13502502 C224.40931524 -0.11779547 229.34192786 -0.06366358 234.27520752 -0.00274658 C238.31277896 0.04090064 242.35026467 0.05840901 246.38802624 0.07452488 C251.18794437 0.09408933 255.98776398 0.12467968 260.78759766 0.15893555 C261.70899221 0.16536135 262.63038677 0.17178715 263.57970238 0.17840767 C266.17278586 0.19929348 268.76566511 0.22758552 271.35864258 0.25878906 C272.52201645 0.26753555 272.52201645 0.26753555 273.70889282 0.27645874 C279.00429426 0.35219465 279.00429426 0.35219465 280.11962891 1.4675293 C280.16043674 3.46711293 280.16217247 5.46798184 280.11962891 7.4675293 C279.22501953 7.49331055 278.33041016 7.5190918 277.40869141 7.5456543 C266.17391301 7.94945669 266.17391301 7.94945669 256.11962891 12.4675293 C252.72257547 17.52419868 251.61990719 20.7731506 251.62515259 26.98854065 C251.61790934 28.07534517 251.61790934 28.07534517 251.61051977 29.18410534 C251.59931151 31.59479142 251.61651905 34.00440179 251.63378906 36.41503906 C251.63164164 38.15015957 251.62776163 39.88527866 251.62228394 41.62039185 C251.61260988 46.32078594 251.62786925 51.02079881 251.64819002 55.72114682 C251.66578866 60.64441047 251.66223541 65.56766284 251.66146851 70.49095154 C251.66334008 78.75689045 251.68068539 87.0226823 251.70800781 95.28857422 C251.73946744 104.84132065 251.75000354 114.39390613 251.74853671 123.94670063 C251.74718513 134.12375972 251.76107022 144.30075688 251.77942991 154.47779727 C251.78368958 157.40767639 251.78511186 160.33754551 251.78590775 163.26742744 C251.78791893 167.87297184 251.80014742 172.47838148 251.82024002 177.08388138 C251.82607413 178.77293129 251.82854397 180.4619967 251.82738495 182.15105629 C251.8264008 184.4586806 251.83774111 186.76592966 251.85220337 189.07350159 C251.85555506 190.36413796 251.85890675 191.65477434 251.86236 192.98452091 C252.12187583 196.49794898 252.74177492 199.2315045 254.11962891 202.4675293 C256.24004334 203.80274365 256.24004334 203.80274365 259.11962891 204.4675293 C259.74869141 204.71245117 260.37775391 204.95737305 261.02587891 205.2097168 C267.30640643 207.59904792 273.44100657 208.13981348 280.11962891 208.4675293 C280.11962891 210.1175293 280.11962891 211.7675293 280.11962891 213.4675293 C243.48962891 213.4675293 206.85962891 213.4675293 169.11962891 213.4675293 C169.11962891 211.8175293 169.11962891 210.1675293 169.11962891 208.4675293 C170.19341797 208.35795898 171.26720703 208.24838867 172.37353516 208.13549805 C173.8097967 207.97591343 175.24599124 207.81572488 176.68212891 207.6550293 C177.38660156 207.58477539 178.09107422 207.51452148 178.81689453 207.44213867 C183.77028117 206.87147201 187.60918063 205.591733 192.11962891 203.4675293 C193.10962891 203.1375293 194.09962891 202.8075293 195.11962891 202.4675293 C198.98978135 193.57755414 198.56283587 183.55304521 198.55200195 174.05053711 C198.56103752 172.43301657 198.57136908 170.81550283 198.58288574 169.19799805 C198.61027141 164.8434571 198.61971497 160.48904672 198.62573981 156.13443089 C198.63517188 151.5700172 198.66137889 147.00569921 198.68574524 142.44134521 C198.7292817 133.81443436 198.75790739 125.18754222 198.78106862 116.56055522 C198.8081895 106.7321134 198.85209656 96.90376847 198.89735734 87.07539606 C198.99001936 66.87282606 199.06178422 46.67022705 199.11962891 26.4675293 C198.45962891 26.4675293 197.79962891 26.4675293 197.11962891 26.4675293 C196.99458984 27.01924805 196.86955078 27.5709668 196.74072266 28.1394043 C194.23243482 37.54153983 189.84612396 46.62243673 186.11962891 55.5925293 C185.70463135 56.59316406 185.28963379 57.59379883 184.86206055 58.62475586 C182.44580872 64.41160539 179.92046257 70.13450196 177.30810547 75.83520508 C175.4430915 79.96597349 173.71944173 84.1517221 171.99462891 88.3425293 C168.57434938 96.60588665 165.11769867 104.85296223 161.63134766 113.08862305 C161.23124481 114.03385834 160.83114197 114.97909363 160.41891479 115.95297241 C159.59216822 117.90595561 158.76539583 119.85892788 157.93859863 121.81188965 C151.69383122 136.56381033 145.46250947 151.31687033 139.50463867 166.1875 C137.66123431 170.77289551 135.7595806 175.30734907 133.68994141 179.7956543 C130.41479682 186.9140419 127.53709669 194.19009821 124.62011719 201.46069336 C123.89804997 203.25806931 123.17295476 205.0542279 122.44775391 206.8503418 C122.02397461 207.90624512 121.60019531 208.96214844 121.16357422 210.05004883 C120.11962891 212.4675293 120.11962891 212.4675293 119.11962891 213.4675293 C117.12004527 213.50833713 115.11917637 213.51007286 113.11962891 213.4675293 C107.21439075 201.25396506 101.9697252 188.77997905 96.71875 176.2746582 C94.07854798 169.98720068 91.43029817 163.70316424 88.77444458 157.42230225 C87.89888291 155.34929209 87.02664751 153.27490499 86.15454102 151.20043945 C83.1235474 144.01711494 79.9636965 136.91591814 76.63696289 129.86465454 C73.88984769 124.02529996 71.35650319 118.10884317 68.86962891 112.1550293 C67.92434458 109.90762161 66.97903119 107.66022615 66.03369141 105.4128418 C65.31681152 103.70402832 65.31681152 103.70402832 64.58544922 101.96069336 C62.14600388 96.14730496 59.69629829 90.33827068 57.24462891 84.5300293 C56.58479004 82.96031372 56.58479004 82.96031372 55.91162109 81.35888672 C53.84151044 76.45240963 51.72900906 71.57441625 49.51025391 66.7331543 C47.16635374 61.61831461 45.03378837 56.44041272 42.97900391 51.20385742 C41.04781432 46.40806996 38.81874382 41.78872016 36.4921875 37.17382812 C36.16751999 36.5272953 35.84285248 35.88076248 35.50834656 35.21463776 C34.7132431 33.63169727 33.91659262 32.04953401 33.11962891 30.4675293 C33.07286206 50.6519564 33.03761711 70.83637247 33.01600456 91.02084255 C33.00570176 100.39330802 32.99166049 109.76573977 32.96875 119.13818359 C32.94878561 127.30931991 32.93590523 135.48043181 32.93145192 143.65159184 C32.9288497 147.97622359 32.92275415 152.3007855 32.90816879 156.62539482 C32.89453668 160.70060075 32.8904176 164.77570842 32.89341354 168.85093498 C32.89286589 170.34200068 32.8889221 171.83306986 32.88121796 173.32411575 C32.83436745 182.86398525 33.11951248 191.61012864 37.11962891 200.4675293 C37.77962891 200.4675293 38.43962891 200.4675293 39.11962891 200.4675293 C39.11962891 201.1275293 39.11962891 201.7875293 39.11962891 202.4675293 C46.7403258 205.69167029 54.90928786 207.534536 63.11962891 208.4675293 C63.11962891 210.1175293 63.11962891 211.7675293 63.11962891 213.4675293 C39.02962891 213.4675293 14.93962891 213.4675293 -9.88037109 213.4675293 C-9.88037109 211.8175293 -9.88037109 210.1675293 -9.88037109 208.4675293 C-9.20232422 208.36956055 -8.52427734 208.2715918 -7.82568359 208.1706543 C-0.20187174 206.94577594 7.78962431 205.62676443 13.55712891 200.1550293 C16.94992727 194.31941612 18.49437657 190.00917958 18.50057983 183.21899414 C18.50525981 182.52374823 18.50993978 181.82850231 18.51476157 181.11218834 C18.52665279 178.80074922 18.51727787 176.48990949 18.5078125 174.1784668 C18.51188083 172.51393286 18.51722417 170.84940163 18.52374268 169.18487549 C18.53739103 164.67663165 18.53212789 160.16859433 18.52260542 155.66034698 C18.51499597 150.9364009 18.522058 146.21247219 18.52676392 141.48852539 C18.53221772 133.55636428 18.5250397 125.62428704 18.51074219 117.69213867 C18.4944164 108.52905493 18.49970517 99.36617146 18.5162214 90.20309258 C18.52984696 82.32773058 18.5317507 74.45242877 18.5239054 66.57705879 C18.51923476 61.8770024 18.51858726 57.17704005 18.52851486 52.47698975 C18.5371978 48.057723 18.53113841 43.6387138 18.51383209 39.21947479 C18.50987434 37.60018084 18.5109891 35.98086511 18.51762009 34.3615799 C18.52585414 32.14611809 18.51549263 29.93147454 18.50057983 27.71606445 C18.49944876 26.47797028 18.49831768 25.2398761 18.49715233 23.96426392 C18.04999525 19.82256156 17.00196262 17.17046053 15.11962891 13.4675293 C13.26947526 11.8709893 13.26947526 11.8709893 11.11962891 11.0925293 C10.09869141 10.64780273 10.09869141 10.64780273 9.05712891 10.1940918 C3.99491676 8.29576224 -0.5708916 8.21555037 -5.94677734 8.04174805 C-8.88037109 7.4675293 -8.88037109 7.4675293 -10.28271484 5.42456055 C-10.47994141 4.77874023 -10.67716797 4.13291992 -10.88037109 3.4675293 C-8.16384771 -0.4982262 -4.36486705 0.01027171 0 0 Z " fill="#FFFFFF" transform="translate(305.88037109375,7.532470703125)"/>
<path d="M0 0 C0.78890625 0.68578125 1.5778125 1.3715625 2.390625 2.078125 C3.20015625 2.74328125 4.0096875 3.4084375 4.84375 4.09375 C24.09350185 20.43787893 34.93475096 42.55478945 39.390625 67.078125 C39.56190918 67.82408936 39.73319336 68.57005371 39.90966797 69.33862305 C43.91641137 92.16078941 40.21658332 117.28197579 30.390625 138.078125 C30.09140137 138.71234375 29.79217773 139.3465625 29.48388672 140 C25.16096628 148.97336885 20.18455206 156.72633882 13.390625 164.078125 C12.57996582 164.96032715 12.57996582 164.96032715 11.75292969 165.86035156 C-1.13146696 179.73640051 -18.44932222 194.53322587 -38.27670574 195.87466049 C-42.2592906 196.00962604 -46.23092604 195.99108008 -50.21484375 195.9375 C-51.9544536 195.93713489 -53.69406538 195.93915888 -55.43367004 195.94342041 C-59.05026555 195.94470364 -62.66562785 195.92210002 -66.28198242 195.88085938 C-70.88141814 195.8296741 -75.47892875 195.83203071 -80.07854748 195.85146713 C-83.66067294 195.86183572 -87.24236761 195.84724751 -90.82442665 195.82508087 C-92.51901642 195.81681086 -94.21365382 195.81516522 -95.90825462 195.82073212 C-106.47913409 195.83556442 -114.91973878 194.79260435 -124.609375 190.078125 C-125.58935959 189.6019574 -126.56934418 189.12578979 -127.57902527 188.63519287 C-151.50790269 176.57253205 -167.36932863 156.25063227 -177.609375 132.078125 C-178.03089844 131.11261719 -178.45242188 130.14710938 -178.88671875 129.15234375 C-190.17615075 101.07786946 -187.01181954 68.26919601 -176.234375 40.703125 C-172.26242779 31.64560053 -166.66974835 23.87341825 -160.40625 16.26953125 C-158.58597004 14.10406553 -158.58597004 14.10406553 -157 11.79296875 C-156.54109375 11.22707031 -156.0821875 10.66117188 -155.609375 10.078125 C-154.949375 10.078125 -154.289375 10.078125 -153.609375 10.078125 C-153.609375 9.418125 -153.609375 8.758125 -153.609375 8.078125 C-152.949375 8.078125 -152.289375 8.078125 -151.609375 8.078125 C-151.609375 7.418125 -151.609375 6.758125 -151.609375 6.078125 C-113.6051146 -29.78272809 -40.69701931 -34.39554535 0 0 Z M-101.609375 -0.921875 C-101.609375 -0.261875 -101.609375 0.398125 -101.609375 1.078125 C-102.269375 1.078125 -102.929375 1.078125 -103.609375 1.078125 C-103.609375 1.738125 -103.609375 2.398125 -103.609375 3.078125 C-104.269375 3.078125 -104.929375 3.078125 -105.609375 3.078125 C-113.83538057 12.49787808 -119.13541811 24.23608627 -122.359375 36.203125 C-122.54580566 36.88689209 -122.73223633 37.57065918 -122.92431641 38.27514648 C-126.85710716 54.06450774 -128.10590612 69.91806618 -128.00048828 86.14160156 C-127.98438313 89.07664421 -128.00046009 92.0103106 -128.01953125 94.9453125 C-128.05127345 123.87379722 -123.65691536 156.90384288 -103.0859375 178.81640625 C-93.96906193 187.14238567 -81.61126618 190.76757607 -69.39453125 190.36328125 C-57.10619626 189.10514878 -46.29285117 184.86149272 -37.7734375 175.78515625 C-18.4637737 151.630649 -16.38167087 119.67612373 -16.421875 90.015625 C-16.42214691 89.25454437 -16.42241882 88.49346375 -16.42269897 87.70932007 C-16.44333941 75.08282442 -16.89728766 62.60395964 -18.609375 50.078125 C-18.70589355 49.35189941 -18.80241211 48.62567383 -18.90185547 47.87744141 C-21.51438771 29.22078666 -28.41887456 10.99683531 -42.609375 -1.921875 C-46.1200955 -4.35987535 -49.69096388 -6.22576276 -53.609375 -7.921875 C-54.77726562 -8.43041016 -54.77726562 -8.43041016 -55.96875 -8.94921875 C-72.10747214 -14.82523 -87.93446894 -10.03847904 -101.609375 -0.921875 Z " fill="#FFFFFF" transform="translate(1784.609375,25.921875)"/>
<path d="M0 0 C20.22207039 18.81122827 33.05890094 43.56394138 34.1706543 71.53344727 C34.79525353 101.61363664 29.68002337 128.84757633 12.0625 153.8125 C11.54429687 154.55371094 11.02609375 155.29492188 10.4921875 156.05859375 C-2.37907993 173.50009381 -20.31661539 186.70714322 -41.9375 190.8125 C-46.45157986 191.2074592 -50.93195713 191.32875529 -55.46264648 191.31347656 C-57.50190493 191.31249909 -59.53744823 191.35437816 -61.57617188 191.3984375 C-71.40252719 191.41767657 -78.59112836 189.96989896 -85.8125 183.0625 C-92.09179448 173.45887316 -92.37806111 166.01009492 -91.9375 154.8125 C-91.9375 153.4925 -91.9375 152.1725 -91.9375 150.8125 C-92.28417725 151.33569824 -92.63085449 151.85889648 -92.98803711 152.39794922 C-115.5812068 186.34933167 -115.5812068 186.34933167 -130.9375 190.8125 C-138.90466932 191.96244454 -149.25859045 192.72330041 -156.3125 188.375 C-158.25 186.69140625 -158.25 186.69140625 -159.9375 184.8125 C-160.515 184.18214844 -161.0925 183.55179688 -161.6875 182.90234375 C-170.21686398 171.9330896 -169.69366684 157.05146555 -168.3125 143.9375 C-164.13794191 115.41135309 -151.25789781 90.00923387 -131.9375 68.8125 C-131.28394531 68.07644531 -130.63039063 67.34039062 -129.95703125 66.58203125 C-124.09678704 60.32194095 -117.11501392 55.43669534 -109.9375 50.8125 C-109.36193359 50.44108887 -108.78636719 50.06967773 -108.19335938 49.68701172 C-98.92990253 43.90926135 -90.67065357 42.20252696 -79.9375 43.8125 C-73.78377848 46.33427596 -69.7179069 49.99829495 -66.89453125 56.046875 C-66.17747633 57.94555563 -65.5486673 59.87713688 -64.9375 61.8125 C-64.68355469 60.89726563 -64.42960938 59.98203125 -64.16796875 59.0390625 C-63.82378906 57.85054688 -63.47960937 56.66203125 -63.125 55.4375 C-62.78855469 54.25414063 -62.45210937 53.07078125 -62.10546875 51.8515625 C-60.9375 48.8125 -60.9375 48.8125 -57.9375 46.8125 C-55.34685758 46.62902152 -52.86658851 46.5562607 -50.27734375 46.58203125 C-49.15882774 46.58271858 -49.15882774 46.58271858 -48.01771545 46.5834198 C-46.44335333 46.58643789 -44.86899408 46.59431098 -43.29467773 46.60668945 C-40.88058945 46.6249577 -38.4668846 46.62719899 -36.05273438 46.62695312 C-34.52343417 46.63186811 -32.99413658 46.63769634 -31.46484375 46.64453125 C-30.74086899 46.64564407 -30.01689423 46.6467569 -29.27098083 46.64790344 C-24.1696682 46.6964159 -24.1696682 46.6964159 -21.9375 47.8125 C-22.53672986 54.00454191 -23.88480289 59.61840041 -25.6875 65.5625 C-25.98406494 66.55983154 -26.28062988 67.55716309 -26.58618164 68.5847168 C-27.28380449 70.93070665 -27.98397098 73.2759409 -28.68603516 75.62060547 C-30.14064997 80.48420211 -31.57606021 85.35343659 -33.01171875 90.22265625 C-33.56565962 92.10091565 -34.11961491 93.9791708 -34.67358398 95.85742188 C-34.95338104 96.80609131 -35.2331781 97.75476074 -35.52145386 98.73217773 C-38.83092014 109.94855757 -42.14576456 121.16335134 -45.484375 132.37109375 C-46.03653687 134.2267395 -46.03653687 134.2267395 -46.59985352 136.11987305 C-47.25763843 138.32883354 -47.91685487 140.53736855 -48.57788086 142.74536133 C-49.37746057 145.43086483 -50.1639409 148.11939815 -50.9375 150.8125 C-51.14592529 151.53155518 -51.35435059 152.25061035 -51.5690918 152.99145508 C-52.85581938 157.71595194 -53.33312109 162.13739378 -53.375 167 C-53.40787109 167.68513672 -53.44074219 168.37027344 -53.47460938 169.07617188 C-53.5155495 172.94315292 -53.06233225 174.65178653 -50.66796875 177.734375 C-46.69618642 180.75724796 -43.85447157 181.16646039 -38.9375 180.8125 C-21.2510877 177.28082338 -5.56509225 163.07534114 4.25 148.6875 C13.16807167 134.97183121 18.58298802 120.75915107 22.0625 104.8125 C22.24208252 104.04236572 22.42166504 103.27223145 22.60668945 102.47875977 C23.58980336 96.72804363 23.30750848 90.82113297 23.3125 85 C23.31317474 84.29997864 23.31384949 83.59995728 23.31454468 82.87872314 C23.27276579 55.67402695 14.81512234 31.57027968 -4.0859375 11.53515625 C-26.7380743 -9.72753721 -55.73982766 -15.21904731 -85.82177734 -14.33984375 C-93.01733904 -13.98801563 -99.92983504 -12.80752539 -106.9375 -11.1875 C-107.65244629 -11.0318457 -108.36739258 -10.87619141 -109.10400391 -10.71582031 C-142.74961297 -3.22239949 -170.03993432 17.14351688 -188.51953125 45.85546875 C-198.01708714 61.08099041 -205.20346814 78.26667625 -208.9375 95.8125 C-209.20457764 97.01144897 -209.20457764 97.01144897 -209.47705078 98.23461914 C-211.23701988 107.19253158 -211.30976399 116.09667055 -211.30810547 125.19116211 C-211.31245285 127.84620632 -211.34881135 130.49954779 -211.38671875 133.15429688 C-211.52513311 154.07706542 -206.10689055 171.75058871 -197.9375 190.8125 C-203.2175 190.8125 -208.4975 190.8125 -213.9375 190.8125 C-221.41705395 175.41341834 -226.40943125 160.75739321 -228.9375 143.8125 C-229.123125 142.77738281 -229.30875 141.74226562 -229.5 140.67578125 C-231.40258202 123.87530255 -230.8094225 106.2823362 -226.9375 89.8125 C-226.76589355 89.04292969 -226.59428711 88.27335937 -226.41748047 87.48046875 C-223.81876606 75.98017051 -220.14057421 65.3859672 -214.9375 54.8125 C-214.62941406 54.17860352 -214.32132813 53.54470703 -214.00390625 52.89160156 C-197.24041502 18.79076515 -167.99938978 -5.32877607 -132.2578125 -17.80859375 C-89.17555483 -32.00547186 -35.67484977 -31.09832345 0 0 Z M-94.875 59.78125 C-113.95175768 82.13682541 -128.22544984 120.98059242 -127.31640625 150.421875 C-126.79376623 155.09869502 -126.19542377 157.38750322 -122.9375 160.8125 C-119.73307757 162.41468089 -119.73307757 162.41468089 -115.9375 161.8125 C-97.80642194 153.79107241 -87.19161077 130.10204408 -80.20703125 112.578125 C-76.6314498 103.1629665 -74.37179205 93.76879005 -72.9375 83.8125 C-72.77121094 82.74128906 -72.60492188 81.67007813 -72.43359375 80.56640625 C-71.37876475 72.02784309 -72.51727576 64.22076557 -76.6875 56.625 C-83.35220349 51.25621108 -89.59411537 54.41518981 -94.875 59.78125 Z " fill="#FFFFFF" transform="translate(235.9375,30.1875)"/>
<path d="M0 0 C1.36298721 -0.00422974 1.36298721 -0.00422974 2.75350952 -0.00854492 C4.26057968 -0.00550858 4.26057968 -0.00550858 5.7980957 -0.00241089 C7.37598373 -0.00503937 7.37598373 -0.00503937 8.98574829 -0.00772095 C12.48180769 -0.01214179 15.97781699 -0.00920065 19.47387695 -0.00582886 C21.8914389 -0.00650183 24.30900078 -0.0074718 26.7265625 -0.00872803 C31.80086916 -0.01020532 36.87515826 -0.00804945 41.94946289 -0.00338745 C48.47022398 0.00230985 54.99094391 -0.00096899 61.51170349 -0.00695992 C66.50606601 -0.01056469 71.50041869 -0.00942733 76.49478149 -0.00683212 C78.89987188 -0.00616262 81.30496313 -0.00699207 83.71005249 -0.00931168 C87.06494531 -0.01183683 90.41977046 -0.00799953 93.7746582 -0.00241089 C94.77937164 -0.00443512 95.78408508 -0.00645935 96.81924438 -0.00854492 C97.72790253 -0.0057251 98.63656067 -0.00290527 99.57275391 0 C100.36696243 0.00037703 101.16117096 0.00075405 101.97944641 0.0011425 C103.78637695 0.12698364 103.78637695 0.12698364 104.78637695 1.12698364 C104.91137695 3.62698364 104.91137695 3.62698364 104.78637695 6.12698364 C102.86570003 8.04766057 99.28037885 7.39619736 96.72387695 7.50198364 C89.68214166 7.89028101 83.91095456 8.48311028 78.34887695 13.18948364 C72.69673981 20.1981337 74.64104387 33.02262886 74.65698242 41.60232544 C74.6552301 42.78621353 74.65347778 43.97010162 74.65167236 45.18986511 C74.64730382 49.06865952 74.65017511 52.94740759 74.65356445 56.82620239 C74.65334099 59.54843685 74.65191946 62.27067051 74.65066528 64.99290466 C74.648853 70.68758638 74.65122378 76.38225508 74.65600586 82.07693481 C74.66143354 88.61496616 74.65969288 95.15296625 74.65417945 101.69099683 C74.64960562 107.34581283 74.64901884 113.00061955 74.65161812 118.65543681 C74.65315931 122.01432007 74.65302955 125.37317724 74.65008163 128.73206139 C72.77625183 163.029625 72.77625183 163.029625 86.4152832 192.87307739 C95.77590759 201.58215019 108.11075752 203.61985941 120.4934082 203.37307739 C132.73438377 202.45827139 146.51968501 197.59499289 154.78637695 188.12698364 C171.07216255 166.193149 168.94612905 139.76476121 168.9543457 113.75588989 C168.95756671 111.33791586 168.96093138 108.91994202 168.96443176 106.50196838 C168.97037891 101.466894 168.97227592 96.43183668 168.97167969 91.39675903 C168.97157758 84.96251022 168.98529983 78.52837055 169.0024519 72.09414768 C169.0135876 67.11403402 169.01559851 62.13394678 169.01506996 57.15382195 C169.016245 54.78128618 169.02063984 52.40874963 169.02840233 50.03622627 C169.03824693 46.72077908 169.03530795 43.40556978 169.02929688 40.09011841 C169.03491638 39.12419769 169.04053589 38.15827698 169.04632568 37.16308594 C169.00681641 28.54688588 168.59191697 19.92775909 162.78637695 13.12698364 C156.50342549 8.10062247 147.50810754 7.86238656 139.78637695 7.12698364 C138.66137695 2.37698364 138.66137695 2.37698364 139.78637695 0.12698364 C149.1394656 0.10384412 158.49254444 0.08606032 167.84565544 0.07517147 C172.18837366 0.06994618 176.53107233 0.06285491 180.8737793 0.05154419 C185.06236082 0.04070279 189.25092351 0.03470414 193.43951797 0.0321064 C195.0399518 0.03025442 196.64038456 0.02663813 198.24081039 0.02125359 C200.47721356 0.01402655 202.71353826 0.01299341 204.94995117 0.01345825 C206.22458221 0.01123764 207.49921326 0.00901703 208.81246948 0.00672913 C211.78637695 0.12698364 211.78637695 0.12698364 213.78637695 1.12698364 C213.82909795 2.79310269 213.82701527 4.46081249 213.78637695 6.12698364 C212.14548978 7.76787082 210.10991429 7.32849303 207.84887695 7.43948364 C200.91812188 8.02607099 194.61499682 9.58847863 189.34887695 14.31448364 C185.21146121 21.76183198 184.34680932 28.75427198 184.38574219 37.17263794 C184.37876312 38.24076721 184.37178406 39.30889648 184.36459351 40.40939331 C184.34468473 43.9234111 184.34511706 47.43713329 184.3449707 50.95120239 C184.33318088 53.41913123 184.31981277 55.88705298 184.3049469 58.35496521 C184.26880064 64.85167898 184.24858486 71.34833011 184.23339844 77.84512329 C184.20857246 88.19469223 184.1682105 98.54412234 184.11149788 108.89356422 C184.09542652 112.47463513 184.09141348 116.05557081 184.08848572 119.63667297 C183.930052 169.91147107 183.930052 169.91147107 169.78637695 191.12698364 C169.12637695 191.12698364 168.46637695 191.12698364 167.78637695 191.12698364 C167.53887695 191.70448364 167.29137695 192.28198364 167.03637695 192.87698364 C165.60337707 195.45638344 164.00213019 197.18819956 161.78637695 199.12698364 C161.12637695 199.12698364 160.46637695 199.12698364 159.78637695 199.12698364 C159.78637695 199.78698364 159.78637695 200.44698364 159.78637695 201.12698364 C157.62824774 202.70442345 155.48385435 204.14713207 153.22387695 205.56448364 C152.61479492 205.9595813 152.00571289 206.35467896 151.37817383 206.76174927 C144.71194127 211.00133209 139.27923397 213.49446893 131.265625 213.54690552 C130.54914795 213.55537506 129.8326709 213.5638446 129.09448242 213.5725708 C126.74550205 213.59580951 124.39718194 213.596966 122.0480957 213.59573364 C120.40053552 213.60284424 118.75297779 213.61054455 117.10542297 213.61880493 C113.65826531 213.6322204 110.21133655 213.63383227 106.76416016 213.62796021 C102.36945359 213.62207326 97.97585526 213.65262679 93.58136272 213.69307709 C90.17959282 213.7190633 86.7780857 213.72182156 83.37623024 213.71818542 C81.75726352 213.71986714 80.1382834 213.72941738 78.5194149 213.74732971 C69.25665248 213.83853389 61.74488729 213.4493499 53.78637695 208.12698364 C52.73450195 207.46698364 51.68262695 206.80698364 50.59887695 206.12698364 C49.67075195 205.46698364 48.74262695 204.80698364 47.78637695 204.12698364 C46.83698242 203.48889771 46.83698242 203.48889771 45.8684082 202.83792114 C44.1359994 201.65531872 42.45638077 200.39618654 40.78637695 199.12698364 C40.78637695 198.46698364 40.78637695 197.80698364 40.78637695 197.12698364 C40.12637695 197.12698364 39.46637695 197.12698364 38.78637695 197.12698364 C24.13451653 179.53899402 21.66289115 159.30218071 21.61279297 137.14749146 C21.60610596 135.89891861 21.59941895 134.65034576 21.5925293 133.36393738 C21.57855641 130.67182437 21.56621531 127.97976208 21.5565815 125.2876358 C21.54098314 121.02536613 21.51703967 116.76316739 21.49168396 112.50094604 C21.42085141 100.38919568 21.36061956 88.27740741 21.30957031 76.16555786 C21.28122692 69.45814862 21.24583795 62.75081278 21.20291656 56.04348063 C21.17625044 51.81128464 21.15828186 47.57917134 21.14687932 43.34690809 C21.1355739 40.09418858 21.11146492 36.84155899 21.08935547 33.58889771 C21.08876633 32.42510086 21.08817719 31.26130402 21.08757019 30.0622406 C21.21094898 20.16340341 21.21094898 20.16340341 16.59887695 11.81448364 C10.73277797 8.29482425 4.73051106 7.81943946 -1.95581055 7.37307739 C-4.21362305 7.12698364 -4.21362305 7.12698364 -5.21362305 6.12698364 C-5.33862305 3.62698364 -5.33862305 3.62698364 -5.21362305 1.12698364 C-3.65608994 -0.43054946 -2.16670104 0.00102857 0 0 Z " fill="#FFFFFF" transform="translate(604.213623046875,7.873016357421875)"/>
<path d="M0 0 C5.85955514 2.48263045 10.92402342 4.55922309 17.3984375 3.83984375 C21.29249159 1.24380769 22.27325338 -2.13072046 23.4921875 -6.453125 C24.3984375 -8.16015625 24.3984375 -8.16015625 26.3671875 -8.9609375 C28.3984375 -9.16015625 28.3984375 -9.16015625 30.3984375 -8.16015625 C31.28459746 7.81070417 31.52402453 23.72168707 31.4609375 39.71484375 C31.45590353 41.97525941 31.45134403 44.23567617 31.44726562 46.49609375 C31.43643082 51.94403529 31.4198485 57.39193402 31.3984375 62.83984375 C28.5234375 63.02734375 28.5234375 63.02734375 25.3984375 62.83984375 C23.22843497 59.58483996 22.51734753 56.98513055 21.5234375 53.21484375 C19.91703835 47.46251738 18.15400227 42.13751405 15.3984375 36.83984375 C14.99109375 36.05351563 14.58375 35.2671875 14.1640625 34.45703125 C5.48108946 18.89597283 -7.5664447 8.87359308 -24.6015625 3.83984375 C-25.52388672 3.55173828 -25.52388672 3.55173828 -26.46484375 3.2578125 C-37.50717614 1.09779501 -48.69216092 2.73827604 -58.3515625 8.40234375 C-63.31688078 12.02711429 -66.621567 15.97485708 -68.6015625 21.83984375 C-69.96504557 30.77974775 -69.30568674 38.49358887 -64.05078125 46.078125 C-53.46979877 58.53600016 -37.87920015 64.92054743 -23.60162354 72.21903992 C30.91278814 100.08773193 30.91278814 100.08773193 42.2109375 128.08984375 C46.92599193 142.97948932 45.66098344 160.8662636 39.2109375 174.96484375 C32.8077427 186.94439439 22.8978944 196.76198577 11.3984375 203.83984375 C10.30724609 204.52199951 9.21605469 205.20415527 8.09179688 205.90698242 C2.18386482 208.81551376 -3.95842214 208.45069344 -10.41796875 208.44140625 C-11.76066099 208.44920293 -13.10334839 208.45787685 -14.44602966 208.46737671 C-17.25430295 208.48223984 -20.06207333 208.48176865 -22.87036133 208.47119141 C-25.72094032 208.46195338 -28.56980837 208.47566083 -31.42016602 208.51220703 C-60.62589404 208.8842207 -60.62589404 208.8842207 -73.6015625 201.83984375 C-79.27630577 199.84955959 -83.23560946 199.32834066 -88.84375 201.76953125 C-90.88498501 202.89369443 -90.88498501 202.89369443 -92.9765625 205.52734375 C-96.05773204 208.24170739 -96.81831469 208.10234793 -100.765625 207.984375 C-101.67006348 207.9635083 -102.57450195 207.9426416 -103.50634766 207.92114258 C-104.543479 207.88089966 -104.543479 207.88089966 -105.6015625 207.83984375 C-105.62471719 198.6344097 -105.64249358 189.42898566 -105.65337467 180.22352886 C-105.65859664 175.94922038 -105.66568188 171.6749318 -105.67700195 167.40063477 C-105.68785515 163.27688717 -105.69384452 159.15315874 -105.69643974 155.02939796 C-105.69828959 153.45491039 -105.7019018 151.88042388 -105.70729256 150.30594444 C-105.71453524 148.10327246 -105.71555207 145.90067999 -105.71508789 143.69799805 C-105.7173085 142.44335251 -105.71952911 141.18870697 -105.72181702 139.89604187 C-105.6015625 136.83984375 -105.6015625 136.83984375 -104.6015625 133.83984375 C-102.6215625 133.83984375 -100.6415625 133.83984375 -98.6015625 133.83984375 C-98.2096875 135.03609375 -97.8178125 136.23234375 -97.4140625 137.46484375 C-96.99447266 138.70621094 -96.99447266 138.70621094 -96.56640625 139.97265625 C-95.89690614 141.96218289 -95.24442156 143.95748481 -94.60546875 145.95703125 C-87.23243745 168.05061293 -75.67591889 185.56394764 -54.49609375 196.43359375 C-39.77773376 202.98354955 -25.41868923 203.55619703 -10.30859375 197.99609375 C-3.17922504 194.79684125 2.46107732 189.28538467 5.6796875 182.140625 C8.62997958 172.69648351 7.64045344 164.12705739 3.3984375 155.40234375 C-3.80023047 143.37028443 -16.70934671 137.32605644 -28.6015625 130.83984375 C-29.28476562 130.4644043 -29.96796875 130.08896484 -30.671875 129.70214844 C-36.96931804 126.25066524 -43.33202184 122.95848558 -49.77929688 119.79614258 C-73.18610708 108.2885296 -94.27022038 93.14156625 -103.3515625 67.7421875 C-107.51669212 52.73036618 -104.51943961 36.23668243 -97.40234375 22.7265625 C-94.37220358 17.86913606 -90.59474301 13.9111826 -86.6015625 9.83984375 C-86.08335937 9.21464844 -85.56515625 8.58945312 -85.03125 7.9453125 C-76.62772312 -1.80013883 -60.44470403 -7.85190095 -47.8984375 -9.03125 C-30.24357628 -10.02208405 -16.0902413 -6.82322041 0 0 Z " fill="#FFFFFF" transform="translate(943.6015625,13.16015625)"/>
<path d="M0 0 C6.23662239 2.18719538 11.26553931 3.82291204 17.86791992 2.86450195 C21.73110821 0.80413487 23.11587642 -1.46573231 24.86791992 -5.32299805 C26.55250284 -9.0003193 26.55250284 -9.0003193 29.49291992 -10.26049805 C31.86791992 -10.13549805 31.86791992 -10.13549805 33.86791992 -8.13549805 C34.11515808 -5.20628357 34.11515808 -5.20628357 34.11083984 -1.40673828 C34.11273819 -0.71554901 34.11463654 -0.02435974 34.11659241 0.68777466 C34.12030358 2.97726711 34.10959229 5.26644385 34.09838867 7.5559082 C34.09719706 9.14249128 34.09674367 10.72907507 34.09700012 12.31565857 C34.09543473 15.64212453 34.08714012 18.96848296 34.07373047 22.29492188 C34.05672671 26.5680585 34.05291648 30.84107701 34.05367565 35.11424351 C34.05340432 38.39036699 34.04792926 41.66646443 34.04067421 44.94257927 C34.03748267 46.51871481 34.03551901 48.0948533 34.0347805 49.6709919 C34.03262283 51.86909182 34.02389157 54.06706403 34.01318359 56.26513672 C34.0093718 57.51819107 34.00556 58.77124542 34.00163269 60.06227112 C33.86791992 62.86450195 33.86791992 62.86450195 32.86791992 63.86450195 C30.86833628 63.90530978 28.86746738 63.90704552 26.86791992 63.86450195 C26.28458659 62.40616862 25.70125326 60.94783529 25.11791992 59.48950195 C24.56297852 58.1127832 24.56297852 58.1127832 23.99682617 56.70825195 C23.29696991 54.94529223 22.61388684 53.17545085 21.95776367 51.39575195 C15.11878598 33.15847811 3.39331346 19.32209347 -14.33129883 10.99731445 C-30.93786922 4.2805705 -48.3033123 3.37784336 -65.13208008 9.86450195 C-83.96839514 18.33760211 -96.08852744 32.78805797 -103.39331055 51.81811523 C-108.69242479 66.49662666 -110.48024445 81.4075273 -110.39282227 96.91992188 C-110.3821415 99.16409625 -110.39276255 101.40746165 -110.40551758 103.65161133 C-110.43138582 127.27335947 -107.41529862 158.11648851 -90.71069336 176.42211914 C-89.52057816 177.57243816 -88.32669875 178.71886052 -87.13208008 179.86450195 C-87.13208008 180.52450195 -87.13208008 181.18450195 -87.13208008 181.86450195 C-86.56618164 182.12489258 -86.0002832 182.3852832 -85.41723633 182.65356445 C-82.92476145 183.97436311 -80.82056657 185.54106404 -78.56958008 187.23950195 C-64.94291299 196.83602738 -47.53714117 198.49809025 -31.33520508 196.36450195 C-7.22069946 191.96185362 8.9559585 179.70981109 25.24682617 162.2277832 C26.86791992 160.86450195 26.86791992 160.86450195 29.86791992 160.86450195 C31.07191431 176.6119841 31.07191431 176.6119841 27.36791992 181.11450195 C25.42651367 182.88012695 25.42651367 182.88012695 22.86791992 184.86450195 C22.32538574 185.31245117 21.78285156 185.76040039 21.22387695 186.22192383 C11.81312397 193.98472248 2.00015394 199.9140216 -9.13208008 204.86450195 C-10.23866219 205.39666321 -10.23866219 205.39666321 -11.36759949 205.9395752 C-14.86245369 207.10886688 -18.14573343 207.17521131 -21.78955078 207.18676758 C-22.92252342 207.20166229 -22.92252342 207.20166229 -24.0783844 207.21685791 C-26.57158109 207.24600221 -29.06452239 207.2596958 -31.55786133 207.27075195 C-32.84493516 207.27923409 -32.84493516 207.27923409 -34.15801048 207.28788757 C-38.70870563 207.31784992 -43.25927459 207.33631616 -47.81005859 207.3449707 C-52.46886731 207.35586968 -57.12648596 207.40377701 -61.78492451 207.46091461 C-65.40137348 207.49854261 -69.01754824 207.50859862 -72.63417625 207.51164246 C-74.3487001 207.51762382 -76.06322342 207.53343266 -77.77755165 207.56001282 C-100.11469497 207.88130966 -118.60481351 198.76654564 -135.13208008 183.86450195 C-136.3947168 182.74301758 -136.3947168 182.74301758 -137.68286133 181.59887695 C-155.45762387 164.90221043 -167.17571425 139.42858631 -168.25683594 115.05151367 C-169.04949847 83.76480244 -162.48359386 54.77484155 -141.13208008 30.86450195 C-140.07053711 29.60766602 -140.07053711 29.60766602 -138.98754883 28.32543945 C-120.3515946 6.71948201 -92.00960017 -6.93905623 -63.75317383 -9.8894043 C-41.63970541 -11.39226137 -20.81610212 -7.33680196 0 0 Z " fill="#FFFFFF" transform="translate(1537.132080078125,14.135498046875)"/>
<path d="M0 0 C6.23662239 2.18719538 11.26553931 3.82291204 17.86791992 2.86450195 C23.22501007 0.12643365 24.81753935 -4.77472649 26.86791992 -10.13549805 C28.53403897 -10.17821905 30.20174877 -10.17613637 31.86791992 -10.13549805 C32.86791992 -9.13549805 32.86791992 -9.13549805 32.98817444 -6.24388123 C32.98595383 -4.94926468 32.98373322 -3.65464813 32.98144531 -2.32080078 C32.98159134 -1.6086441 32.98173737 -0.89648743 32.98188782 -0.16275024 C32.98118863 2.20183308 32.97339598 4.56633857 32.96557617 6.9309082 C32.96371201 8.56615659 32.9622881 10.20140552 32.96128845 11.83665466 C32.9574631 16.14884981 32.94763267 20.46101148 32.93658447 24.77319336 C32.92637072 29.17016141 32.92179091 33.56713485 32.91674805 37.96411133 C32.90601041 46.59759026 32.88893379 55.23104195 32.86791992 63.86450195 C30.88791992 63.86450195 28.90791992 63.86450195 26.86791992 63.86450195 C26.66038086 63.32825195 26.4528418 62.79200195 26.23901367 62.23950195 C25.13793892 59.43844151 24.0013361 56.65263849 22.86791992 53.86450195 C22.63186035 53.25912598 22.39580078 52.65375 22.15258789 52.0300293 C14.93425684 33.58628594 4.02612134 19.38175494 -14.52026367 11.12060547 C-31.07763184 4.13906168 -48.24285233 3.573171 -65.13208008 9.86450195 C-83.45035425 17.61292137 -95.14662299 31.5861137 -102.56176758 49.70825195 C-108.84521808 65.84204583 -110.52613174 82.32678755 -110.44458008 99.48950195 C-110.44184586 100.68287674 -110.44184586 100.68287674 -110.4390564 101.90036011 C-110.39313288 113.80532144 -109.86076583 125.23535893 -107.13208008 136.86450195 C-106.96579102 137.63955078 -106.79950195 138.41459961 -106.62817383 139.21313477 C-102.65079852 157.61954385 -95.46425458 175.28160769 -80.06176758 187.0090332 C-63.2089575 197.68247959 -42.90858554 199.12101676 -23.76879883 194.84106445 C-4.7348914 189.72991853 9.17593566 179.0633635 22.62890625 165.03027344 C24.00709802 163.6071245 25.43368044 162.23114841 26.86791992 160.86450195 C27.52791992 160.86450195 28.18791992 160.86450195 28.86791992 160.86450195 C30.52973182 176.27403046 30.52973182 176.27403046 26.87573242 181.9699707 C24.01643693 184.57648789 21.08943043 186.72328163 17.86791992 188.86450195 C16.85729492 189.62891602 15.84666992 190.39333008 14.80541992 191.1809082 C4.30027669 198.94158277 -8.27472326 206.9644415 -21.5625 207.07324219 C-22.31752304 207.08302597 -23.07254608 207.09280975 -23.85044861 207.10289001 C-26.3544643 207.13284251 -28.85842579 207.15424483 -31.36254883 207.1730957 C-32.22243219 207.17966753 -33.08231556 207.18623936 -33.968256 207.19301033 C-38.53188048 207.22562439 -43.09548166 207.25005432 -47.65917969 207.26953125 C-51.40985967 207.28723877 -55.15977276 207.3218834 -58.91015625 207.37207031 C-63.45897582 207.43285837 -68.00709288 207.46308833 -72.55629921 207.47270393 C-74.276423 207.48117188 -75.99653252 207.49977056 -77.71642113 207.52944756 C-100.09034428 207.89429667 -118.57564311 198.79284754 -135.13208008 183.86450195 C-136.3947168 182.74301758 -136.3947168 182.74301758 -137.68286133 181.59887695 C-157.70537536 162.79079223 -167.60365701 135.38076572 -169.35473633 108.4387207 C-170.19357716 76.81806829 -156.4453 46.68873373 -135.13208008 23.86450195 C-128.43279542 17.0800569 -121.39673613 11.59946115 -113.13208008 6.86450195 C-112.57004883 6.53708008 -112.00801758 6.2096582 -111.42895508 5.87231445 C-76.02543926 -14.60015339 -37.5407322 -13.23153182 0 0 Z " fill="#FFFFFF" transform="translate(1306.132080078125,14.135498046875)"/>
<path d="M0 0 C0.91003281 -0.00281982 1.82006561 -0.00563965 2.75767517 -0.00854492 C4.25935242 -0.00550858 4.25935242 -0.00550858 5.79136658 -0.00241089 C6.84343796 -0.00416321 7.89550934 -0.00591553 8.97946167 -0.00772095 C12.47008394 -0.0121358 15.96065587 -0.00920295 19.45127869 -0.00582886 C21.8674114 -0.00650195 24.28354404 -0.00747202 26.69967651 -0.00872803 C31.76800683 -0.01020446 36.83631955 -0.00805199 41.90464783 -0.00338745 C48.41753316 0.00231284 54.93037732 -0.00097142 61.44326115 -0.00695992 C66.43333245 -0.01056439 71.42339391 -0.00942752 76.4134655 -0.00683212 C78.81576479 -0.0061627 81.21806497 -0.00699182 83.62036324 -0.00931168 C86.97035738 -0.01183667 90.32028376 -0.00799991 93.67027283 -0.00241089 C94.67341522 -0.00443512 95.67655762 -0.00645935 96.71009827 -0.00854492 C98.07091774 -0.00431519 98.07091774 -0.00431519 99.45922852 0 C100.25213822 0.00037703 101.04504793 0.00075405 101.86198521 0.0011425 C103.66612244 0.12698364 103.66612244 0.12698364 104.66612244 1.12698364 C104.79112244 3.62698364 104.79112244 3.62698364 104.66612244 6.12698364 C102.88375152 7.90935456 100.14436778 7.38359239 97.72862244 7.50198364 C91.6793391 7.90927535 86.35859913 9.08385995 80.66612244 11.12698364 C80.66612244 11.78698364 80.66612244 12.44698364 80.66612244 13.12698364 C80.00612244 13.12698364 79.34612244 13.12698364 78.66612244 13.12698364 C75.7062267 22.57704074 75.24107704 31.57640788 75.29380798 41.38528442 C75.29137457 42.98657466 75.28764995 44.58786337 75.28274536 46.18914795 C75.27340944 50.50310339 75.28269901 54.81682903 75.29607749 59.13076639 C75.3074687 63.66375631 75.30327869 68.19673619 75.30133057 72.72973633 C75.30045018 80.33696201 75.31147582 87.94409815 75.3299408 95.55130005 C75.35111969 104.32642747 75.35461349 113.10142397 75.34837884 121.87657177 C75.34267059 130.34694009 75.34834706 138.81726265 75.35955238 147.28762436 C75.36417748 150.87986987 75.36508134 154.47208721 75.36296654 158.06433487 C75.3610732 162.29814081 75.36926736 166.53181481 75.38502693 170.76559067 C75.38924351 172.31267501 75.39013819 173.8597728 75.38733673 175.40686035 C74.73399239 189.65163986 74.73399239 189.65163986 80.22862244 202.06448364 C87.60529091 207.09483829 95.97579405 207.70055467 104.66612244 208.12698364 C104.66612244 209.77698364 104.66612244 211.42698364 104.66612244 213.12698364 C68.03612244 213.12698364 31.40612244 213.12698364 -6.33387756 213.12698364 C-6.33387756 211.47698364 -6.33387756 209.82698364 -6.33387756 208.12698364 C-5.19950256 208.02901489 -4.06512756 207.93104614 -2.89637756 207.83010864 C8.51728874 206.94806462 8.51728874 206.94806462 18.66612244 202.12698364 C21.52420239 197.55068133 22.04379976 194.0369057 22.05380249 188.68826294 C22.05918803 187.96049747 22.06457357 187.23273199 22.0701223 186.48291302 C22.08437735 184.05550182 22.07730449 181.62863785 22.07017517 179.20120239 C22.07587998 177.45637576 22.08284467 175.71155286 22.0909729 173.96673584 C22.10890577 169.23538032 22.10773585 164.50421025 22.10203052 159.77283096 C22.0989393 155.82140995 22.10503027 151.8700246 22.11106926 147.91860867 C22.12511288 138.59708627 22.12355414 129.27565554 22.11216736 119.95413208 C22.10068195 110.33942291 22.1147693 100.72499253 22.14156383 91.11032009 C22.16371629 82.85197962 22.17035936 74.5937267 22.16448742 66.33535862 C22.16111608 61.40445338 22.1635449 56.47372692 22.18073845 51.54284668 C22.19619859 46.90686332 22.19226243 42.27129336 22.1734333 37.63532639 C22.16974505 35.93498184 22.17286279 34.23460671 22.18331909 32.53429031 C22.19651497 30.21095156 22.1849956 27.88898432 22.16732788 25.56570435 C22.1671186 24.26639481 22.16690931 22.96708527 22.16669369 21.62840271 C21.57817176 17.51178213 20.246021 15.34895619 17.66612244 12.12698364 C11.56605346 8.02656895 4.40850182 7.59487545 -2.74403381 7.30276489 C-5.33387756 7.12698364 -5.33387756 7.12698364 -6.33387756 6.12698364 C-6.37451588 4.46081249 -6.37659856 2.79310269 -6.33387756 1.12698364 C-3.98887221 -0.04551903 -2.61322396 0.00124199 0 0 Z " fill="#FFFFFF" transform="translate(1013.3338775634766,7.873016357421875)"/>
<path d="M0 0 C1.23556641 0.01740234 1.23556641 0.01740234 2.49609375 0.03515625 C3.32238281 0.04417969 4.14867187 0.05320313 5 0.0625 C5.63808594 0.07410156 6.27617187 0.08570313 6.93359375 0.09765625 C6.51053873 6.6021272 4.0470037 11.31662818 0.93359375 16.97265625 C0.46953125 17.83890625 0.00546875 18.70515625 -0.47265625 19.59765625 C-3.87316645 25.90441645 -3.87316645 25.90441645 -5.06640625 27.09765625 C-6.75249591 27.16971136 -8.44141284 27.18151693 -10.12890625 27.16015625 C-11.04800781 27.15113281 -11.96710938 27.14210937 -12.9140625 27.1328125 C-13.62433594 27.12121094 -14.33460938 27.10960937 -15.06640625 27.09765625 C-12.9667583 21.72207688 -10.48761986 16.55396964 -8.00390625 11.34765625 C-7.54435547 10.37699219 -7.08480469 9.40632812 -6.61132812 8.40625 C-6.17240234 7.48457031 -5.73347656 6.56289062 -5.28125 5.61328125 C-4.880271 4.77055664 -4.47929199 3.92783203 -4.06616211 3.05957031 C-2.56892621 0.12140483 -2.56892621 0.12140483 0 0 Z " fill="#FFFFFF" transform="translate(275.06640625,193.90234375)"/>
</svg>
