<svg id="visual" viewBox="0 0 960 540" width="960" height="540" xmlns="http://www.w3.org/2000/svg" xmlns:xlink="http://www.w3.org/1999/xlink" version="1.1"><path d="M0 120L53.3 115.5C106.7 111 213.3 102 320 91.2C426.7 80.3 533.3 67.7 640 68.5C746.7 69.3 853.3 83.7 906.7 90.8L960 98L960 0L906.7 0C853.3 0 746.7 0 640 0C533.3 0 426.7 0 320 0C213.3 0 106.7 0 53.3 0L0 0Z" fill="#ffc382"></path><path d="M0 136L53.3 133.3C106.7 130.7 213.3 125.3 320 145.2C426.7 165 533.3 210 640 211.8C746.7 213.7 853.3 172.3 906.7 151.7L960 131L960 96L906.7 88.8C853.3 81.7 746.7 67.3 640 66.5C533.3 65.7 426.7 78.3 320 89.2C213.3 100 106.7 109 53.3 113.5L0 118Z" fill="#ffb567"></path><path d="M0 168L53.3 171.7C106.7 175.3 213.3 182.7 320 197.2C426.7 211.7 533.3 233.3 640 238.7C746.7 244 853.3 233 906.7 227.5L960 222L960 129L906.7 149.7C853.3 170.3 746.7 211.7 640 209.8C533.3 208 426.7 163 320 143.2C213.3 123.3 106.7 128.7 53.3 131.3L0 134Z" fill="#ffa64c"></path><path d="M0 239L53.3 261.5C106.7 284 213.3 329 320 343.3C426.7 357.7 533.3 341.3 640 323.3C746.7 305.3 853.3 285.7 906.7 275.8L960 266L960 220L906.7 225.5C853.3 231 746.7 242 640 236.7C533.3 231.3 426.7 209.7 320 195.2C213.3 180.7 106.7 173.3 53.3 169.7L0 166Z" fill="#e1903f"></path><path d="M0 541L53.3 541C106.7 541 213.3 541 320 541C426.7 541 533.3 541 640 541C746.7 541 853.3 541 906.7 541L960 541L960 264L906.7 273.8C853.3 283.7 746.7 303.3 640 321.3C533.3 339.3 426.7 355.7 320 341.3C213.3 327 106.7 282 53.3 259.5L0 237Z" fill="#c37a32"></path></svg>